# AST/ASF file generated using VICON BodyLanguage
# -----------------------------------------------
:version 1.10
:name VICON
:units
  mass 1.0
  length 0.45
  angle deg
:documentation
   .ast/.asf automatically generated from VICON data using
   VICON BodyBuilder and BodyLanguage model FoxedUp or BRILLIANT.MOD
:root
   order TX TY TZ RX RY RZ
   axis XYZ
   position 0 0 0  
   orientation 0 0 0 
:bonedata
  begin
     id 1 
     name lhipjoint
     direction 0.722297 -0.617336 0.311742 
     length 2.6635 
     axis 0 0 0  XYZ
  end
  begin
     id 2 
     name lfemur
     direction 0.34202 -0.939693 0  
     length 7.39349  
     axis 0 0 20  XYZ
    dof rx ry rz
    limits (-160.0 20.0)
           (-70.0 70.0)
           (-60.0 70.0)
  end
  begin
     id 3 
     name ltibia
     direction 0.34202 -0.939693 0   
     length 7.36294   
     axis 0 0 20   XYZ
    dof rx
    limits (-10.0 170.0)
  end
  begin
     id 4 
     name lfoot
     direction 0.104879 -0.288152 0.951824   
     length 2.16981   
     axis -90 7.62852e-016 20   XYZ
    dof rx rz
    limits (-45.0 90.0)
           (-70.0 20.0)
  end
  begin
     id 5 
     name ltoes
     direction 1.53586e-011 -4.21895e-011 1   
     length 1.08218   
     axis -90 7.62852e-016 20   XYZ
    dof rx
    limits (-90.0 20.0)
  end
  begin
     id 6 
     name rhipjoint
     direction -0.75102 -0.589393 0.297631   
     length 2.78977  
     axis 0 0 0  XYZ 
  end
  begin
     id 7 
     name rfemur
     direction -0.34202 -0.939693 0   
     length 7.46076   
     axis 0 0 -20   XYZ
    dof rx ry rz
    limits (-160.0 20.0)
           (-70.0 70.0)
           (-70.0 60.0)
  end
  begin
     id 8 
     name rtibia
     direction -0.34202 -0.939693 0   
     length 7.31726   
     axis 0 0 -20   XYZ
    dof rx
    limits (-10.0 170.0)
 end
 begin
     id 9 
     name rfoot
     direction -0.107991 -0.296704 0.948844   
     length 2.09388  
     axis -90 -7.62852e-016 -20   XYZ
    dof rx rz
    limits (-45.0 90.0)
           (-20.0 70.0)
  end
  begin
     id 10 
     name rtoes
     direction -1.53559e-011 -4.21911e-011 1   
     length 1.04433   
     axis -90 -7.62852e-016 -20   XYZ
    dof rx
    limits (-90.0 20.0)
  end
  begin
     id 11 
     name lowerback
     direction 0.0165164 0.98272 0.184358   
     length 1.71896   
     axis 0 0 0   XYZ
    dof rx ry rz
    limits (-20.0 45.0)
           (-30.0 30.0)
           (-30.0 30.0)
  end
  begin
     id 12 
     name upperback
     direction -0.00887249 0.992297 0.123566   
     length 1.71504   
     axis 0 0 0   XYZ
    dof rx ry rz
    limits (-20.0 45.0)
           (-30.0 30.0)
           (-30.0 30.0)
  end
  begin
     id 13 
     name thorax
     direction -0.0157026 0.998908 0.0440032   
     length 1.77022   
     axis 0 0 0   XYZ
    dof rx ry rz
    limits (-20.0 45.0)
           (-30.0 30.0)
           (-30.0 30.0)
  end
  begin
     id 14 
     name lowerneck
     direction -0.0238856 0.998137 0.0561411   
     length 1.89341   
     axis 0 0 0   XYZ
    dof rx ry rz
    limits (-20.0 45.0)
           (-30.0 30.0)
           (-30.0 30.0)
  end
  begin
     id 15 
     name upperneck
     direction 0.0276574 0.952253 -0.304056   
     length 1.86999   
     axis 0 0 0   XYZ
    dof rx ry rz
    limits (-20.0 45.0)
           (-30.0 30.0)
           (-30.0 30.0)
  end
  begin
     id 16
     name head
     direction 0.00800083 0.994258 -0.106712  
     length 1.91492  
     axis 0 0 0   XYZ
    dof rx ry rz
    limits (-20.0 45.0)
           (-30.0 30.0)
           (-30.0 30.0)
  end
  begin
     id 17 
     name lclavicle
     direction 0.97203 0.225407 0.06595  
     length 3.34889  
     axis 0 0 0   XYZ
    dof ry rz
    limits (-20.0 10.0)
           (0.0 20.0)
  end
  begin
     id 18 
     name lhumerus
     direction 1 -4.48973e-011 2.20267e-027   
     length 4.85645   
     axis 180 -30 -90   XYZ
    dof rx ry rz
    limits (-60.0 90.0)
           (-90.0 90.0)
           (-90.0 90.0)
  end
  begin
     id 19
     name lradius
     direction 1 -4.4897e-011 4.60472e-027   
     length 2.79874   
     axis 180 -30 -90   XYZ
    dof rx
    limits (-10.0 170.0)
  end
  begin
     id 20
     name lwrist
     direction 1 -4.48952e-011 1.14928e-026   
     length 1.39937   
     axis -6.29373e-015 90 90   XYZ
    dof ry
    limits (-180.0 0.0)
 end
  begin
     id 21 
     name lhand
     direction 1 -4.48967e-011 2.29886e-026   
     length 0.573398   
     axis -1.46689e-014 90 90   XYZ
    dof rx rz
    limits (-90.0 90.0)
           (-45.0 45.0)
  end
  begin
     id 22 
     name lfingers
     direction 1 -4.48955e-011 4.59726e-026   
     length 0.462289   
     axis -2.93383e-014 90 90   XYZ
    dof rx
    limits (0.0 90.0)
  end
  begin
     id 23
     name lthumb
     direction 0.707107 -6.34866e-011 0.707107   
     length 0.663757   
     axis -90 45 5.69224e-014   XYZ
    dof rx rz
    limits (-45.0 45.0)
           (-45.0 45.0)
  end
  begin
     id 24 
     name rclavicle
     direction -0.981571 0.157346 0.108443   
     length 3.35257  
     axis 0 0 0   XYZ 
    dof ry rz
    limits (-10.0 20.0)
           (-20.0 0.0)
  end
  begin
     id 25 
     name rhumerus
     direction -1 -4.48967e-011 8.58308e-029  
     length 4.67018   
     axis 180 30 90   XYZ
    dof rx ry rz
    limits (-90.0 60.0)
           (-90.0 90.0)
           (-90.0 90.0)
  end
  begin
     id 26 
     name rradius
     direction -1 -4.48958e-011 4.52548e-027   
     length 2.65534   
     axis 180 30 90   XYZ
    dof rx
    limits (-10.0 170.0)
  end
  begin
     id 27 
     name rwrist
     direction -1 -4.48977e-011 1.14952e-026   
     length 1.32767   
     axis -6.29373e-015 -90 -90   XYZ
    dof ry
    limits (-180.0 0.0)
  end
  begin
     id 28
     name rhand
     direction -1 -4.48924e-011 2.29804e-026   
     length 0.594069   
     axis -1.46689e-014 -90 -90   XYZ
    dof rx rz
    limits (-90.0 90.0)
           (-45.0 45.0)
  end
  begin
     id 29
     name rfingers
     direction -1 -4.48998e-011 4.59888e-026   
     length 0.478954   
     axis -2.93383e-014 -90 -90   XYZ
    dof rx
    limits (0.0 90.0)
  end
  begin
     id 30
     name rthumb
     direction -0.707107 -6.34933e-011 0.707107   
     length 0.687685   
     axis -90 -45 -5.69224e-014   XYZ
    dof rx rz
    limits (-45.0 45.0)
           (-45.0 45.0)
  end
:hierarchy
  begin
    root lhipjoint rhipjoint lowerback
    lhipjoint lfemur
    lfemur ltibia
    ltibia lfoot
    lfoot ltoes
    rhipjoint rfemur
    rfemur rtibia
    rtibia rfoot
    rfoot rtoes
    lowerback upperback
    upperback thorax
    thorax lowerneck lclavicle rclavicle
    lowerneck upperneck
    upperneck head
    lclavicle lhumerus
    lhumerus lradius
    lradius lwrist
    lwrist lhand lthumb
    lhand lfingers
    rclavicle rhumerus
    rhumerus rradius
    rradius rwrist
    rwrist rhand rthumb
    rhand rfingers
  end

#!OML:ASF E:\pregnant2\Project 1\Capture day 1\Session 1\pregnant2.ASF
:FULLY-SPECIFIED
:DEGREES
926
root 6.30573 21.6288 -21.7855 -153.682 11.6458 181.852
lowerback -13.0144 -0.691673 1.08662
upperback -12.379 1.01501 0.204407
thorax -5.83563 1.31398 -0.404543
lowerneck -10.8356 -6.43512 -0.339529
upperneck 51.151 4.34048 -5.97736
head 24.968 4.11183 -1.01843
rclavicle -5.01931e-015 -2.38542e-015
rhumerus -56.3015 4.75386 -66.699
rradius 47.1842
rwrist 6.00313
rhand -11.444 -11.8942
rfingers 7.12502
rthumb 14.5927 -41.3608
lclavicle -5.01931e-015 -2.38542e-015
lhumerus -52.9883 2.79715 72.0348
lradius 42.1908
lwrist 1.56644
lhand -7.10347 24.7477
lfingers 7.12502
lthumb 18.7713 53.862
rfemur -43.0469 2.10405 30.2217
rtibia 56.0855
rfoot -29.7131 -12.3135
rtoes -13.7018
lfemur -55.0168 -4.80585 -13.1167
ltibia 29.1602
lfoot 19.524 18.8136
ltoes -16.5259
927
root 6.28612 21.5554 -21.8612 -153.745 11.8773 181.899
lowerback -12.9351 -0.632933 1.07088
upperback -12.4254 1.10085 0.198811
thorax -5.9291 1.3592 -0.39829
lowerneck -10.9126 -6.38712 -0.26143
upperneck 51.1202 4.31874 -5.93404
head 24.9592 4.11515 -1.01524
rclavicle -6.58474e-016 -6.55989e-015
rhumerus -56.3532 4.46977 -66.4754
rradius 46.6995
rwrist 5.2856
rhand -10.1045 -12.9664
rfingers 7.12502
rthumb 15.883 -42.335
lclavicle -6.58474e-016 -6.55989e-015
lhumerus -52.9805 2.72234 72.2311
lradius 42.3195
lwrist 1.61441
lhand -7.13309 24.7476
lfingers 7.12502
lthumb 18.7428 53.8647
rfemur -43.2821 2.2136 30.0959
rtibia 57.3398
rfoot -29.9628 -12.4924
rtoes -14.8244
lfemur -54.4474 -5.10187 -13.0166
ltibia 29.0047
lfoot 19.9714 18.9933
ltoes -16.4085
928
root 6.26643 21.4907 -21.9492 -153.726 12.0502 182.122
lowerback -12.9903 -0.582424 1.27935
upperback -12.5235 1.18182 0.262621
thorax -6.00945 1.39823 -0.444056
lowerneck -10.7261 -6.29928 -0.12433
upperneck 50.9589 4.33393 -6.00299
head 24.6845 4.1289 -1.08526
rclavicle -8.21229e-015 -7.55382e-015
rhumerus -56.5628 4.19792 -66.1853
rradius 45.9433
rwrist 5.52612
rhand -9.73602 -12.6804
rfingers 7.12502
rthumb 16.2378 -42.0204
lclavicle -8.21229e-015 -7.55382e-015
lhumerus -53.0494 2.65982 72.4183
lradius 42.3765
lwrist 1.70333
lhand -7.24767 24.8112
lfingers 7.12502
lthumb 18.6326 53.9389
rfemur -43.4492 2.26166 30.158
rtibia 58.5808
rfoot -30.4021 -12.5798
rtoes -15.6858
lfemur -53.8903 -5.33665 -12.7972
ltibia 28.8855
lfoot 20.2965 19.2912
ltoes -16.3843
929
root 6.24418 21.4186 -22.0256 -153.816 12.2972 182.104
lowerback -13.1969 -0.479047 1.26734
upperback -12.3406 1.2724 0.201894
thorax -5.69094 1.42665 -0.482352
lowerneck -10.9357 -6.18258 0.13107
upperneck 50.7199 4.23996 -6.07837
head 24.4977 4.08163 -1.21825
rclavicle 9.83984e-015 7.55382e-015
rhumerus -56.3262 3.71434 -65.9323
rradius 45.1771
rwrist 5.81725
rhand -9.70996 -12.6959
rfingers 7.12502
rthumb 16.2629 -42.0338
lclavicle 9.83984e-015 7.55382e-015
lhumerus -52.703 2.72574 72.5946
lradius 42.4709
lwrist 1.70779
lhand -7.23892 24.8033
lfingers 7.12502
lthumb 18.641 53.9301
rfemur -43.7476 2.31874 29.9537
rtibia 59.9402
rfoot -30.7081 -12.632
rtoes -16.3282
lfemur -53.3048 -5.6071 -12.8697
ltibia 28.7958
lfoot 20.6496 19.3596
ltoes -16.9435
930
root 6.22316 21.3489 -22.1153 -153.789 12.5296 182.228
lowerback -12.9045 -0.506678 1.28336
upperback -12.7318 1.33407 0.310071
thorax -6.28885 1.49352 -0.39504
lowerneck -10.668 -6.18932 0.27275
upperneck 50.8133 4.41428 -6.27346
head 24.5228 4.20657 -1.30731
rclavicle 1.02747e-014 -1.98785e-015
rhumerus -57.0115 3.86202 -65.7679
rradius 44.8447
rwrist 5.68341
rhand -8.98687 -13.7145
rfingers 7.12502
rthumb 16.9591 -42.9942
lclavicle 1.02747e-014 -1.98785e-015
lhumerus -53.3872 2.63983 72.779
lradius 42.6765
lwrist 1.83903
lhand -7.33526 24.8168
lfingers 7.12502
lthumb 18.5484 53.9525
rfemur -44.0415 2.38299 29.8855
rtibia 61.269
rfoot -30.9907 -12.6769
rtoes -17.1504
lfemur -52.7085 -5.78672 -12.8922
ltibia 28.7415
lfoot 21.0716 19.1457
ltoes -18.1064
931
root 6.19868 21.2714 -22.1999 -153.868 12.7593 182.272
lowerback -12.9182 -0.442324 1.35354
upperback -12.739 1.41295 0.289934
thorax -6.28764 1.52606 -0.449574
lowerneck -10.6655 -6.10891 0.253014
upperneck 50.6896 4.35008 -6.14036
head 24.3567 4.16475 -1.247
rclavicle 3.8763e-015 0
rhumerus -57.0638 3.52399 -65.4749
rradius 43.8091
rwrist 6.34369
rhand -9.26142 -12.6931
rfingers 7.12502
rthumb 16.6948 -41.9952
lclavicle 3.8763e-015 0
lhumerus -53.37 2.62389 72.9337
lradius 42.8119
lwrist 1.79401
lhand -7.17703 25.1377
lfingers 7.12502
lthumb 18.7006 54.2588
rfemur -44.2581 2.37074 29.7642
rtibia 62.661
rfoot -31.2638 -12.8909
rtoes -18.365
lfemur -52.0524 -6.05728 -12.9629
ltibia 28.6815
lfoot 21.5816 18.9877
ltoes -19.1147
